<svg width="1052" height="1333" viewBox="0 0 1052 1333" fill="none" xmlns="http://www.w3.org/2000/svg">
<path d="M487 2.66663C484.867 3.59996 482.6 4.13324 482.067 3.86658C481.533 3.46658 479.267 4.13325 477.133 5.33325C474.467 6.66659 469.4 7.33325 461.4 7.33325C454.067 7.33325 447.133 8.13334 443 9.46667C435.533 12 419.4 17.4667 406.333 22C401.533 23.6 395.933 25.4667 393.667 26C391.533 26.5333 385.533 28.5333 380.467 30.5333C375.533 32.4 370.333 34 369 34C367.8 34 365.667 35.1999 364.2 36.7999C362.867 38.3999 359.533 40.8 357 42.1333C348.333 46.9333 343 50.2667 339.267 53.4667C337.267 55.2 334.867 56.2666 333.933 55.8666C333 55.5999 329.533 57.3333 326.2 60C323 62.5333 319.667 64.6666 319 64.6666C318.2 64.6666 314.867 67.3333 311.667 70.6666C308.467 74 305.133 76.6666 304.333 76.6666C303.533 76.6666 300.067 79.0667 296.467 82C293 84.9333 289.533 87.3333 288.867 87.3333C287.267 87.3333 221 153.733 221 155.333C221 156 219.267 158.533 217.133 160.933C213.4 165.2 210.333 170 205.133 179.467C203.667 182 201.533 184.933 200.333 186C199.133 187.067 197 190 195.533 192.533C191.667 199.733 190.067 202.267 186.067 207.067C183.933 209.467 182.333 212.8 182.333 214.533C182.333 216.267 180.6 219.867 178.333 222.667C176.2 225.467 174.333 228.667 174.333 229.867C174.333 230.933 172.867 235.867 171.133 240.667C169.4 245.467 167.533 250.933 167.133 252.8C166.733 254.667 164.867 257.867 163 260.133C161.133 262.267 159.667 265.333 159.667 267.067C159.667 268.8 159 271.467 158.2 272.933C157.4 274.4 156.2 278.8 155.667 282.533C155.133 286.267 153.533 292.667 152.333 296.667C151.133 300.667 149.667 308.8 149 314.667C148.067 324.667 147.4 327.333 143.4 338.267C142.6 340.667 141.533 350.8 141 360.667C140.333 375.2 139.667 379.467 137.667 382.933C136.2 385.333 134.6 387.333 134.2 387.333C133.667 387.333 130.333 389.733 126.867 392.667C123.267 395.6 119.8 398 119 398C118.2 398 114.867 400.667 111.667 404C108.467 407.333 105.133 410 104.2 410C103.4 410 99.6666 412.4 96.1999 415.333C92.5999 418.267 89.2666 420.667 88.5999 420.667C87.1332 420.667 56.9999 451.067 56.9999 452.667C56.9999 453.333 55.2666 455.867 53.2666 458.267C51.1332 460.667 48.5999 464.267 47.5332 466.133C41.7999 476.933 39.6666 480.267 37.1333 482.533C35.5333 484 34.3332 486.4 34.3332 488C34.3332 489.6 32.5999 493.2 30.3332 496C28.1999 498.8 26.3332 502.4 26.3332 504.133C26.3332 505.733 24.8666 508.933 22.9999 511.067C21.1332 513.333 19.6666 516.133 19.6666 517.467C19.6666 518.933 17.7999 524.133 15.6666 529.333C13.3999 534.4 11.6666 539.6 11.6666 540.8C11.6666 542 10.7332 545.2 9.66658 547.733C8.59991 550.4 7.66658 556.267 7.66658 560.667C7.66658 565.2 7.13325 569.867 6.33325 571.2C5.66658 572.533 4.73325 575.6 4.33325 578C3.93325 580.4 2.99991 583.467 2.33325 584.8C0.333246 588.4 0.599913 1114 2.46658 1118.93C3.26658 1120.93 4.19991 1124.27 4.46658 1126.13C4.73325 1128 6.19991 1132.53 7.79991 1136.13C9.39991 1139.73 11.1332 1144.8 11.6666 1147.33C12.3332 1149.87 14.0666 1155.33 15.6666 1159.33C17.2666 1163.33 18.9999 1168.53 19.2666 1170.93C19.6666 1173.2 21.3999 1176.53 23.1332 1178.13C24.8666 1179.73 26.3332 1182.4 26.3332 1184C26.3332 1185.6 28.1999 1189.2 30.3332 1192C32.5999 1194.8 34.3332 1198.67 34.3332 1200.67C34.3332 1202.67 35.6666 1205.47 37.6666 1207.33C39.5333 1209.07 40.9999 1211.73 40.9999 1213.33C40.9999 1214.93 43.1333 1218.93 45.6666 1222.13C48.1999 1225.33 50.3333 1228.67 50.3333 1229.33C50.3333 1231.2 102.6 1283.33 104.467 1283.33C105.267 1283.33 108.2 1285.33 111.133 1287.73C113.933 1290.27 119.4 1293.87 123 1296C126.733 1298.13 131.133 1301.07 133 1302.8C139.133 1308.27 155 1316.67 165 1319.87C169 1321.2 174.2 1322.93 176.333 1323.73C178.6 1324.53 186.6 1325.47 194.333 1325.87C202.067 1326.27 209.667 1327.47 211.4 1328.4C213.133 1329.47 214.867 1329.87 215.267 1329.47C215.667 1329.07 218.067 1329.6 220.6 1330.67C227.667 1333.6 825 1333.6 832.067 1330.67C834.6 1329.6 837 1329.07 837.4 1329.47C837.8 1329.87 839.933 1329.2 842.2 1328.13C844.467 1326.8 849.533 1326 854.333 1326C858.733 1326 864.6 1325.07 867.267 1324C869.8 1322.93 873 1322 874.333 1322C875.667 1322 880.2 1320.4 884.467 1318.53C888.733 1316.67 893.667 1314.93 895.533 1314.67C899.267 1314.13 911.267 1309.6 916.867 1306.67C918.867 1305.73 923.133 1302.4 926.333 1299.47C929.667 1296.4 932.733 1294 933.133 1294C933.667 1294 937 1291.6 940.467 1288.67C944.067 1285.73 947.533 1283.33 948.333 1283.33C950.2 1283.33 1002.33 1231.07 1002.33 1229.2C1002.33 1228.4 1004.33 1225.47 1006.73 1222.53C1009.27 1219.73 1013 1214.27 1015 1210.67C1017.13 1206.93 1020.47 1202 1022.6 1199.6C1024.6 1197.2 1026.33 1193.87 1026.33 1192.13C1026.33 1190.4 1027.67 1186.13 1029.27 1182.53C1030.87 1178.93 1032.6 1173.87 1033.13 1171.33C1033.67 1168.8 1035.4 1163.33 1037 1159.33C1038.6 1155.33 1040.33 1149.87 1041 1147.33C1041.53 1144.8 1043.27 1139.73 1044.87 1136.13C1046.47 1132.53 1047.93 1128 1048.2 1126.13C1048.47 1124.27 1049.4 1120.93 1050.2 1118.93C1051.27 1116.13 1051.67 1043.73 1051.67 855.2C1051.67 626.133 1051.4 594.667 1049.67 590.4C1048.6 587.733 1047.93 585.333 1048.2 585.067C1048.47 584.667 1047.93 582.4 1046.87 580C1045.8 577.2 1045 570.8 1045 564C1045 556.8 1044.2 550.8 1043 547.733C1041.93 545.2 1041 542 1041 540.8C1041 539.6 1039.27 534.4 1037 529.333C1034.87 524.133 1033 518.933 1033 517.467C1033 516.133 1031.53 513.333 1029.67 511.067C1027.8 508.933 1026.33 505.733 1026.33 504C1026.33 502.133 1024.6 498.8 1022.6 496.4C1020.47 494 1017 488.933 1015 485.333C1012.87 481.6 1009.53 476.667 1007.4 474.267C1005.4 471.867 1003.67 468.533 1003.67 466.8C1003.67 465.067 1001.93 461.467 999.667 458.667C997.533 455.867 995.667 453.067 995.667 452.533C995.667 451.067 965.533 420.667 964.067 420.667C963.533 420.667 960.333 418.533 957.133 416C953.933 413.467 949.933 411.333 948.2 411.333C946.6 411.333 943.267 409.733 941 407.733C938.6 405.867 935.4 404 933.8 403.867C932.333 403.733 930.6 403.467 930.067 403.467C929.533 403.333 926.6 400.267 923.667 396.533L918.333 389.733V366.667C918.333 349.467 917.8 342.533 916.333 338.933C915.267 336.4 914.733 334 915.133 333.6C915.533 333.2 914.867 331.067 913.8 328.8C912.6 326.667 911.667 322.667 911.667 320.133C911.667 317.467 910.867 313.067 909.8 310.4C905.4 298.133 903.667 291.733 903.667 288.267C903.667 286.267 902.733 282.4 901.667 279.867C900.6 277.333 899.8 274.8 899.8 274.267C900.2 271.733 899.4 270.133 896.333 266.8C894.467 264.8 893 261.867 893 260.133C893 258.4 891.267 254.8 889 252C886.867 249.2 885 245.6 885 243.867C885 242.267 883.533 239.067 881.667 236.933C879.8 234.667 878.333 232.133 878.333 231.067C878.333 224.933 866.333 201.067 858.733 192.133C856.333 189.2 854.333 186.133 854.333 185.333C854.333 184.533 851.667 181.2 848.333 178C845 174.8 842.333 171.467 842.333 170.667C842.333 169.867 840.333 166.8 837.933 163.867C835.533 161.067 831.8 155.6 829.667 152C827.667 148.267 823.933 142.933 821.4 140.133C819 137.2 817 134.267 817 133.467C817 131.6 779.4 94 777.533 94C776.733 94 773.667 91.8666 770.733 89.3333C767.667 86.7999 764.6 84.6666 763.933 84.6666C763.267 84.6666 761.933 83.7333 761 82.6666C758.733 79.8666 740.6 66 734.6 62.4C731.933 60.8 727.533 58.2666 725 56.7999C722.467 55.4666 719.133 53.0667 717.8 51.4667C716.333 49.8667 713.933 48.6666 712.333 48.6666C710.733 48.6666 707.133 46.8 704.333 44.6666C701.533 42.4 697.667 40.6666 695.667 40.6666C693.667 40.6666 690.867 39.3333 689 37.3333C687.267 35.4666 684.867 34 683.533 34C682.2 34 676.467 32.1333 670.733 30C665.133 27.7333 659.4 26 658.067 26C656.867 26 654.2 24.5333 652.2 22.6666C648.867 19.6 647.267 18.8 644.733 19.2C644.2 19.2 641.667 18.3999 639.133 17.3333C636.6 16.2666 632.733 15.3333 630.733 15.3333C627.267 15.3333 620.867 13.6 608.6 9.19995C605.8 8.13328 598.333 7.33325 591.533 7.33325C583.267 7.33325 578.333 6.66662 575.533 5.19995C573.267 4.13328 571.133 3.46658 570.733 3.86658C570.333 4.26658 567.933 3.73329 565.4 2.66663C558.867 -4.07696e-05 493.133 -4.07696e-05 487 2.66663ZM565.4 136C567.933 137.067 570.333 137.6 570.733 137.2C571.133 136.8 573.267 137.467 575.533 138.533C577.933 139.867 582.867 140.667 587.933 140.667C596.333 140.667 607.933 144.667 613 149.333C615.667 151.733 634.2 159.333 637.533 159.333C638.867 159.333 642.067 161.067 644.6 163.333C647.267 165.733 650.6 167.333 652.867 167.333C655 167.333 657.667 168.533 659.133 170.133C660.467 171.733 663.8 174 666.333 175.333C668.867 176.667 674.867 181.733 679.667 186.533C684.333 191.333 688.867 195.333 689.667 195.333C690.467 195.333 693.533 197.467 696.467 200C699.267 202.533 702.733 205.067 704.067 205.467C705.267 205.867 706.333 206.933 706.333 207.867C706.333 208.8 708.467 211.867 711 214.8C713.533 217.6 715.667 220.533 715.667 221.2C715.667 221.867 721.533 228.4 728.867 235.867C736.067 243.333 742.867 251.2 744.067 253.333C745.133 255.6 747.267 258.533 748.867 259.867C750.467 261.333 751.667 264 751.667 266.133C751.667 268.4 753.267 271.733 755.667 274.4C757.933 276.933 759.667 280.533 759.667 282.267C759.667 284.133 761.133 286.933 763 288.667C764.867 290.4 766.333 292.8 766.333 294.133C766.333 295.333 768.067 301.2 770.2 306.933C772.2 312.667 774.867 320.267 776.2 324C778.733 331.867 779.133 351.333 776.733 353.733C775.533 354.933 717.933 355.333 526.067 355.333C300.6 355.333 276.867 355.2 276.067 353.2C275.4 351.2 276.733 344.933 279.933 336C280.733 333.733 281.8 328.933 282.2 325.333C282.733 321.6 283.933 317.2 284.867 315.6C285.8 313.867 286.2 312.133 285.8 311.733C285.133 311.067 289.267 299.333 291.667 295.067C292.467 293.733 293 291.2 293 289.467C293 287.733 295.133 283.733 297.667 280.667C300.2 277.6 302.333 274.533 302.333 273.867C302.333 272.267 306.6 266.133 312.733 258.8C315 255.867 317 252.8 317 252C317 251.2 319.667 247.867 323 244.667C326.333 241.467 329 238 329 237.2C329 236.267 331.133 233.067 333.667 230C336.2 226.933 338.333 223.733 338.333 223.067C338.333 221.067 361.133 198 363.133 198C363.933 198 367.667 195.6 371.133 192.667C374.733 189.733 378.2 187.333 379 187.333C379.8 187.333 383.133 184.667 386.333 181.333C389.533 178 392.867 175.333 393.667 175.333C394.467 175.333 397.133 173.6 399.667 171.333C402.2 169.2 405.667 167.467 407.133 167.333C408.733 167.333 412.2 165.467 415 163.333C417.8 161.067 421.4 159.333 423.133 159.333C424.733 159.333 427.933 157.867 430.067 156C432.333 154.133 435.267 152.667 436.733 152.667C438.067 152.667 441.533 150.8 444.333 148.667C447.133 146.4 450.733 144.667 452.333 144.667C454.067 144.667 457.133 143.733 459.133 142.667C461.267 141.6 465.267 140.667 468.067 140.667C470.867 140.667 474.867 139.733 477.133 138.667C479.267 137.467 481.533 136.8 482.067 137.2C482.6 137.467 484.867 136.933 487 136C493.133 133.333 558.867 133.333 565.4 136ZM830.333 490.667C832.467 491.733 835.4 492.667 836.867 492.667C839.533 492.667 844.067 494.4 855.667 499.733C861.533 502.4 898.333 537.067 898.333 540C898.333 540.667 900.467 544 903 547.2C905.533 550.4 907.667 554.4 907.667 556.133C907.667 557.867 909.133 560.8 911 562.8C914.067 566.133 914.867 567.867 914.467 570.4C914.333 570.933 915.267 573.2 916.333 575.333C918.067 578.8 918.333 610.4 918.333 844C918.333 1020.67 917.933 1109.73 917 1111.33C916.2 1112.8 915.4 1115.73 915.133 1118C914.867 1120.27 913.133 1123.87 911.133 1125.87C909.133 1127.87 907.667 1131.07 907.667 1132.93C907.667 1135.07 905.933 1138.4 903.667 1140.93C901.533 1143.33 899.667 1145.87 899.667 1146.53C899.667 1148.27 860.733 1187.33 859 1187.33C858.2 1187.33 855.4 1189.2 853 1191.33C848.867 1195.07 847.133 1195.87 844.6 1195.47C844.067 1195.33 841.8 1196.27 839.667 1197.33C836.2 1199.07 799.667 1199.33 526.333 1199.33C253 1199.33 216.467 1199.07 213 1197.33C210.867 1196.27 208.6 1195.33 208.067 1195.47C205.533 1195.87 203.8 1195.07 200.467 1192C198.467 1190.13 195.533 1188.67 193.8 1188.67C192.067 1188.67 188.067 1186.53 184.867 1184C181.667 1181.47 178.467 1179.33 177.667 1179.33C175.933 1179.33 154.333 1157.73 154.333 1156C154.333 1155.33 152.2 1152 149.667 1148.8C147.133 1145.6 145 1141.6 145 1139.87C145 1138.13 143.533 1135.2 141.667 1133.2C138.6 1129.87 137.8 1128.13 138.2 1125.6C138.333 1125.07 137.4 1122.8 136.333 1120.67C134.6 1117.2 134.333 1085.07 134.333 848C134.333 646.933 134.733 578.4 135.933 576.267C136.733 574.667 137.667 571.733 137.8 569.733C138.067 567.867 140.2 561.733 142.467 556.4C146.333 547.6 148.867 544.533 168.867 524.267C181 512 191.533 502 192.333 502C193 502 196.333 499.867 199.533 497.333C202.733 494.8 206.467 492.667 207.667 492.667C209 492.667 212.067 491.867 214.467 490.8C218.333 489.2 262.867 488.8 522.733 488.8C791.667 488.667 826.867 488.8 830.333 490.667Z" fill="black"/>
<path d="M513 586.133C494.333 587.733 483.933 589.867 474.467 593.867C469.667 596 463.933 598.133 461.8 598.533C459.533 599.067 455.667 601.2 453.133 603.2C450.467 605.2 445 608.8 441 611.333C422.067 622.8 402.2 642.533 394.467 657.6C392.867 660.8 391.133 663.333 390.467 663.333C388.467 663.333 373 694.933 368.6 708C364.6 719.6 364.467 720.933 363.933 747.333C363.533 771.333 363.8 775.867 366.067 784.667C367.533 790.133 369.4 796.4 370.2 798.4C371 800.533 371.667 803.333 371.667 804.8C371.667 807.2 383.533 832.533 392.2 848.8C399.267 861.733 437.533 896.8 447 898.8C449.133 899.2 453.4 901.067 456.467 902.8C459.4 904.533 466.2 906.933 471.4 908.133C487.667 911.733 486.333 902 486.333 1012.27C486.467 1120.27 486.2 1117.07 496.467 1127.47C501.4 1132.4 504.2 1134.13 509.267 1135.33C518.067 1137.2 549.8 1136.93 555.667 1134.93C559.933 1133.47 560.6 1132.4 563.4 1124L566.6 1114.67L567.267 1020C567.667 966.933 568.467 923.2 569.133 920.4C570.2 916.533 571.267 915.2 574.067 914.533C576.067 914 580.333 912.267 583.667 910.667C587 908.933 594.467 905.333 600.333 902.533C612.067 896.933 617.267 892.667 639.4 870C656.733 852.4 664.067 842.667 670.2 828.533C672.6 823.067 675.8 816.133 677.133 813.067C679.667 807.733 682.6 798 685.133 786.667C689.533 767.867 689.533 738.933 685.4 723.6C684.2 719.467 682.6 712.4 681.667 708C680.867 703.6 678.733 697.467 677.267 694.4C675.667 691.333 674.333 688 674.333 687.067C674.333 686.133 672.467 682.667 670.333 679.333C668.2 676 666.333 672 666.333 670.4C666.333 668.8 665 665.867 663.267 663.733C661.533 661.733 657.4 656.267 654.2 651.6C651 646.933 647.133 641.6 645.667 639.6C642.333 635.2 625.4 619.333 624.067 619.333C623.4 619.333 619.8 616.667 615.8 613.467C608.067 607.067 607.667 606.8 593 600.667C587.533 598.267 580.333 595.2 577 593.733C571.4 591.2 559.533 588.8 539.667 586C530.2 584.667 529.533 584.667 513 586.133ZM541.667 676.667C549.8 677.6 555.267 679.067 559 681.2C561.933 682.933 565.933 684.667 567.933 685.2C573.667 686.533 591.133 706.533 596.067 717.333C600.333 726.667 600.333 726.667 600.333 749.333C600.333 771.467 600.2 772.133 596.6 779.733C588.733 795.867 581.133 805.6 569 814.267C566.467 816.133 562.867 818.133 561 818.667C559.133 819.2 555.267 821.2 552.467 823.067C547.4 826.267 546.2 826.4 527.133 826.267C505.267 826.133 505.267 826.133 484.867 815.333C478.333 811.867 473.933 808.267 468.067 801.333C454.333 785.067 452.867 782.667 451.667 774.4C451 770.133 449.667 763.2 448.867 759.067C447.4 752.4 447.4 749.6 449.533 738.4C450.867 731.2 453.4 722.267 455.133 718.4C456.867 714.667 458.333 710.933 458.333 710.4C458.333 708.8 472.6 694.933 478.333 690.8C480.867 689.067 487.533 685.333 493 682.533C506.6 675.733 519.667 674.267 541.667 676.667Z" fill="black"/>
</svg>
